<svg 
 xmlns="http://www.w3.org/2000/svg"
 xmlns:xlink="http://www.w3.org/1999/xlink"
 width="18px" height="15px">
<path fill-rule="evenodd"  fill="rgb(255, 255, 255)"
 d="M17.026,8.838 L3.348,8.838 L8.455,13.410 C8.850,13.765 8.850,14.341 8.455,14.696 C8.059,15.051 7.418,15.051 7.022,14.696 L0.407,8.774 C0.300,8.678 0.224,8.565 0.175,8.446 C0.065,8.298 -0.000,8.119 -0.000,7.926 C-0.000,7.641 0.142,7.389 0.361,7.222 C0.382,7.199 0.399,7.175 0.423,7.153 L7.036,1.233 C7.432,0.878 8.073,0.878 8.468,1.233 C8.864,1.588 8.864,2.163 8.468,2.518 L3.447,7.013 L17.026,7.013 C17.564,7.013 18.000,7.422 18.000,7.926 C18.000,8.430 17.564,8.838 17.026,8.838 Z"/>
</svg>